<?xml version="1.0" encoding="utf-8"?>
<!-- Generator: Adobe Illustrator 15.1.0, SVG Export Plug-In . SVG Version: 6.00 Build 0)  -->
<!DOCTYPE svg PUBLIC "-//W3C//DTD SVG 1.1//EN" "http://www.w3.org/Graphics/SVG/1.1/DTD/svg11.dtd">
<svg version="1.1" id="Logo_1" xmlns="http://www.w3.org/2000/svg" xmlns:xlink="http://www.w3.org/1999/xlink" x="0px" y="0px"
	 width="256.041px" height="256.041px" viewBox="0 0 256.041 256.041" enable-background="new 0 0 256.041 256.041"
	 xml:space="preserve">
<g>
	<rect x="1.5" y="1.5" fill="none" stroke="#FFFFFF" stroke-width="3" stroke-miterlimit="10" width="253.041" height="253.041"/>
	<g>
		<path fill="#FFFFFF" d="M13.313,158.726c0.626,0,1.153,0.217,1.582,0.65c0.428,0.434,0.643,0.967,0.643,1.6v32.2
			c0,0.633-0.215,1.167-0.643,1.6c-0.429,0.434-0.956,0.65-1.582,0.65c-0.626,0-1.154-0.217-1.582-0.65
			c-0.429-0.433-0.643-0.966-0.643-1.6v-32.2c0-0.633,0.214-1.167,0.643-1.6C12.16,158.943,12.687,158.726,13.313,158.726z
			 M38.088,190.926c0.633,0,1.167,0.225,1.6,0.675c0.433,0.45,0.65,0.975,0.65,1.575c0,0.633-0.217,1.167-0.65,1.6
			c-0.434,0.434-0.967,0.65-1.6,0.65c-0.967,0-1.825-0.133-2.575-0.4c-0.75-0.266-1.525-0.866-2.325-1.8
			c-0.367-0.433-0.858-1.091-1.475-1.975c-0.617-0.883-1.358-1.958-2.225-3.225c-0.434-0.666-0.842-1.266-1.225-1.8
			c-0.384-0.533-0.659-0.933-0.825-1.2l-0.45-0.6c-0.5-0.7-0.975-1.275-1.425-1.725c-0.45-0.45-0.992-0.675-1.625-0.675h-2.7
			c-0.634,0-1.167-0.216-1.6-0.65c-0.434-0.433-0.65-0.966-0.65-1.6c0-0.633,0.216-1.166,0.65-1.6c0.433-0.433,0.966-0.65,1.6-0.65
			h1.4c0.333-0.566,0.758-1.3,1.275-2.2c0.517-0.9,1.075-1.875,1.675-2.925c0.6-1.05,1.225-2.133,1.875-3.25
			c0.65-1.116,1.258-2.166,1.825-3.15c0.566-0.983,1.158-1.975,1.775-2.975c0.617-1,1.042-1.7,1.275-2.1
			c0.3-0.566,0.75-0.933,1.35-1.1c0.6-0.167,1.167-0.083,1.7,0.25c0.566,0.3,0.925,0.742,1.075,1.325
			c0.15,0.584,0.075,1.159-0.225,1.725c-0.3,0.534-0.875,1.509-1.725,2.925c-0.85,1.417-1.692,2.842-2.525,4.275
			c-0.834,1.434-1.675,2.883-2.525,4.35c-0.85,1.467-1.575,2.717-2.175,3.75c0.833,0.467,1.517,1.033,2.05,1.7
			c0.533,0.667,0.967,1.234,1.3,1.7c0.1,0.1,0.216,0.25,0.35,0.45c0.232,0.3,0.55,0.734,0.95,1.3c0.4,0.567,0.833,1.2,1.3,1.9
			c0.3,0.434,0.616,0.892,0.95,1.375c0.333,0.483,0.658,0.95,0.975,1.4c0.316,0.45,0.6,0.859,0.85,1.225
			c0.25,0.367,0.458,0.634,0.625,0.8c0.266,0.334,0.458,0.525,0.575,0.575C37.33,190.901,37.622,190.926,38.088,190.926z"/>
		<path fill="#FFFFFF" d="M51.613,195.676c-0.626,0-1.154-0.217-1.582-0.65c-0.429-0.433-0.643-0.966-0.643-1.6v-32.35
			c0-0.6,0.216-1.125,0.65-1.575c0.433-0.45,0.966-0.675,1.6-0.675h12.7c1.7,0,3.292,0.325,4.775,0.975
			c1.483,0.65,2.775,1.525,3.875,2.625c1.1,1.1,1.975,2.4,2.625,3.9c0.65,1.5,0.975,3.1,0.975,4.8c0,1.7-0.325,3.292-0.975,4.775
			c-0.65,1.484-1.525,2.775-2.625,3.875c-1.1,1.1-2.392,1.975-3.875,2.625c-1.483,0.65-3.075,0.975-4.775,0.975
			c-0.633,0-1.175-0.216-1.625-0.65c-0.45-0.433-0.675-0.966-0.675-1.6c0-0.633,0.225-1.167,0.675-1.6
			c0.45-0.433,0.992-0.65,1.625-0.65c1.066,0,2.066-0.208,3-0.625c0.933-0.417,1.75-0.975,2.45-1.675c0.7-0.7,1.25-1.517,1.65-2.45
			c0.4-0.933,0.6-1.933,0.6-3c0-1.066-0.201-2.075-0.602-3.025c-0.402-0.95-0.953-1.775-1.655-2.475
			c-0.702-0.7-1.521-1.25-2.457-1.65s-1.939-0.6-3.008-0.6H53.838v30.05c0,0.633-0.215,1.167-0.643,1.6
			C52.766,195.459,52.239,195.676,51.613,195.676z"/>
	</g>
	<g>
		<path fill="#FFFFFF" d="M24.458,245.376c-1.833,0-3.559-0.242-5.175-0.725c-1.617-0.482-3.042-1.158-4.275-2.025
			c-1.5-1.1-2.65-2.433-3.45-4c-0.8-1.566-1.2-3.35-1.2-5.35c0-0.633,0.216-1.158,0.65-1.575c0.433-0.417,0.967-0.625,1.6-0.625
			c0.566,0,1.058,0.208,1.475,0.625c0.417,0.417,0.625,0.942,0.625,1.575c0,2.567,0.933,4.5,2.8,5.8
			c0.867,0.633,1.892,1.117,3.075,1.45c1.183,0.334,2.475,0.5,3.875,0.5c1.133,0,2.216-0.158,3.25-0.475
			c1.033-0.316,1.933-0.792,2.7-1.425c1.5-1.2,2.25-2.766,2.25-4.7c0-1.5-0.5-2.7-1.5-3.6c-0.667-0.667-1.584-1.167-2.75-1.5
			c-1.167-0.333-2.534-0.65-4.1-0.95c-0.667-0.133-1.25-0.258-1.75-0.375c-0.5-0.116-0.975-0.225-1.425-0.325
			c-0.45-0.1-0.883-0.208-1.3-0.325c-0.417-0.116-0.875-0.241-1.375-0.375c-0.867-0.233-1.684-0.525-2.45-0.875
			c-0.767-0.35-1.434-0.775-2-1.275c-1.033-1-1.817-2.133-2.35-3.4c-0.534-1.267-0.8-2.7-0.8-4.3c0-1.2,0.275-2.391,0.825-3.575
			c0.55-1.183,1.308-2.208,2.275-3.075c0.4-0.366,0.883-0.741,1.45-1.125c0.566-0.383,1.232-0.733,2-1.05
			c0.766-0.316,1.633-0.575,2.6-0.775c0.967-0.2,2.05-0.3,3.25-0.3c1.3,0,2.483,0.125,3.55,0.375c1.066,0.25,2.025,0.567,2.875,0.95
			c0.85,0.383,1.583,0.809,2.2,1.275c0.617,0.467,1.158,0.934,1.625,1.4c0.467,0.467,0.892,1,1.275,1.6
			c0.383,0.6,0.708,1.233,0.975,1.9c0.533,1.167,0.8,2.284,0.8,3.35c0,0.633-0.208,1.167-0.625,1.6
			c-0.417,0.434-0.909,0.65-1.475,0.65c-0.6,0-1.117-0.216-1.55-0.65c-0.434-0.433-0.65-0.967-0.65-1.6
			c0-0.367-0.142-0.917-0.425-1.65c-0.284-0.733-0.775-1.483-1.475-2.25c-0.567-0.6-1.425-1.183-2.575-1.75
			c-1.15-0.566-2.659-0.85-4.525-0.85c-1.333,0-2.542,0.167-3.625,0.5c-1.083,0.333-1.975,0.833-2.675,1.5
			c-0.667,0.6-1.134,1.225-1.4,1.875c-0.267,0.65-0.4,1.208-0.4,1.675c0,0.7,0.1,1.367,0.3,2c0.2,0.634,0.633,1.242,1.3,1.825
			c0.667,0.583,1.625,1.133,2.875,1.65c1.25,0.517,2.908,1.009,4.975,1.475c2.133,0.467,4,0.934,5.6,1.4
			c1.6,0.467,2.933,1.217,4,2.25c1.833,1.833,2.75,4.067,2.75,6.7c0,1.633-0.333,3.142-1,4.525c-0.667,1.383-1.6,2.575-2.8,3.575
			c-1.167,0.9-2.492,1.6-3.975,2.1C27.7,245.126,26.125,245.376,24.458,245.376z"/>
		<path fill="#FFFFFF" d="M65.658,207.826c0.633,0,1.158,0.208,1.575,0.625c0.417,0.417,0.625,0.942,0.625,1.575
			c0,0.6-0.208,1.117-0.625,1.55c-0.417,0.434-0.942,0.65-1.575,0.65h-10.75v30c0,0.634-0.211,1.159-0.632,1.575
			c-0.422,0.417-0.952,0.625-1.593,0.625c-0.607,0-1.13-0.208-1.568-0.625c-0.438-0.417-0.657-0.941-0.657-1.575v-30h-10.75
			c-0.6,0-1.117-0.216-1.55-0.65c-0.434-0.433-0.65-0.95-0.65-1.55c0-0.633,0.216-1.158,0.65-1.575
			c0.433-0.417,0.95-0.625,1.55-0.625H65.658z"/>
		<path fill="#FFFFFF" d="M85.908,244.976c-1.9,0-3.692-0.358-5.375-1.075c-1.684-0.716-3.192-1.725-4.525-3.025
			c-1.3-1.333-2.309-2.841-3.025-4.525c-0.717-1.683-1.075-3.475-1.075-5.375v-21.6c0-0.6,0.216-1.108,0.65-1.525
			c0.433-0.417,0.95-0.625,1.55-0.625c0.6,0,1.108,0.208,1.525,0.625c0.416,0.417,0.625,0.925,0.625,1.525v21.6
			c0,1.333,0.25,2.583,0.75,3.75c0.5,1.167,1.191,2.192,2.075,3.075c0.883,0.883,1.908,1.575,3.075,2.075
			c1.167,0.5,2.417,0.75,3.75,0.75c1.333,0,2.583-0.25,3.75-0.75c1.167-0.5,2.183-1.191,3.05-2.075
			c0.867-0.883,1.55-1.908,2.05-3.075c0.5-1.167,0.75-2.417,0.75-3.75v-19.25v-0.1c0.033-0.066,0.058-0.25,0.075-0.55
			c0.017-0.3,0.075-0.633,0.175-1c0.166-0.6,0.4-1.075,0.7-1.425c0.3-0.35,0.6-0.616,0.9-0.8c0.3-0.183,0.583-0.292,0.85-0.325
			c0.267-0.033,0.466-0.05,0.6-0.05c0.6,0,1.108,0.208,1.525,0.625c0.417,0.417,0.625,0.925,0.625,1.525
			c0,0.867-0.35,1.484-1.05,1.85c0,0.167-0.017,0.267-0.05,0.3v19.2c0,1.9-0.35,3.692-1.05,5.375c-0.7,1.684-1.7,3.192-3,4.525
			c-1.333,1.3-2.842,2.309-4.525,3.025C89.599,244.618,87.808,244.976,85.908,244.976z"/>
		<path fill="#FFFFFF" d="M119.757,244.626c-0.6,0-1.117-0.208-1.55-0.625c-0.434-0.417-0.65-0.941-0.65-1.575
			c0-0.6,0.216-1.108,0.65-1.525c0.433-0.416,0.95-0.625,1.55-0.625c1.933,0,3.75-0.366,5.45-1.1c1.7-0.733,3.183-1.733,4.45-3
			c1.267-1.267,2.267-2.75,3-4.45c0.733-1.7,1.1-3.517,1.1-5.45c0-1.933-0.367-3.741-1.098-5.425
			c-0.731-1.683-1.729-3.158-2.992-4.425c-1.264-1.267-2.744-2.267-4.439-3c-1.695-0.733-3.508-1.1-5.436-1.1h-5.685v30.1
			c0,0.633-0.22,1.158-0.658,1.575c-0.438,0.417-0.961,0.625-1.567,0.625c-0.607,0-1.13-0.208-1.568-0.625
			c-0.438-0.417-0.657-0.941-0.657-1.575v-32.3c0-0.6,0.216-1.116,0.65-1.55c0.433-0.433,0.95-0.65,1.55-0.65h7.9
			c2.533,0,4.917,0.483,7.15,1.45c2.233,0.967,4.175,2.284,5.825,3.95c1.65,1.667,2.958,3.608,3.925,5.825
			c0.966,2.217,1.45,4.592,1.45,7.125c0,2.534-0.484,4.917-1.45,7.15c-0.967,2.233-2.275,4.175-3.925,5.825
			c-1.65,1.65-3.592,2.958-5.825,3.925C124.674,244.143,122.29,244.626,119.757,244.626z"/>
		<path fill="#FFFFFF" d="M149.607,244.676c-0.634,0-1.167-0.217-1.6-0.65c-0.434-0.433-0.65-0.966-0.65-1.6v-32.5
			c0-0.6,0.216-1.117,0.65-1.55c0.433-0.433,0.966-0.65,1.6-0.65c0.6,0,1.116,0.217,1.55,0.65c0.433,0.434,0.65,0.95,0.65,1.55v32.5
			c0,0.633-0.217,1.167-0.65,1.6C150.723,244.459,150.207,244.676,149.607,244.676z"/>
		<path fill="#FFFFFF" d="M178.406,207.826c2.533,0,4.925,0.483,7.175,1.45c2.25,0.967,4.216,2.284,5.9,3.95
			c1.683,1.667,3.008,3.625,3.975,5.875c0.966,2.25,1.45,4.642,1.45,7.175c0,2.967-0.633,5.7-1.9,8.2c-1.267,2.5-2.983,4.6-5.15,6.3
			l-0.1,0.1c-1.6,1.2-3.35,2.142-5.25,2.825c-1.9,0.684-3.934,1.025-6.1,1.025c-2.534,0-4.917-0.483-7.15-1.45
			c-2.233-0.966-4.192-2.283-5.875-3.95c-1.684-1.667-3.009-3.617-3.975-5.85c-0.967-2.233-1.45-4.633-1.45-7.2
			c0-2.8,0.566-5.391,1.7-7.775c1.133-2.383,2.683-4.425,4.65-6.125l0.2-0.2c0.033,0,0.083-0.033,0.15-0.1
			c1.6-1.333,3.4-2.375,5.4-3.125S176.173,207.826,178.406,207.826z M178.457,240.326c1.266,0,2.475-0.158,3.625-0.475
			c1.15-0.316,2.241-0.758,3.275-1.325l-17.55-21.35c-1.067,1.233-1.9,2.625-2.5,4.175c-0.6,1.55-0.9,3.192-0.9,4.925
			c0,1.934,0.367,3.75,1.1,5.45c0.733,1.7,1.741,3.192,3.025,4.475c1.283,1.284,2.775,2.292,4.475,3.025
			C174.707,239.959,176.523,240.326,178.457,240.326z M188.756,235.776c1.167-1.266,2.075-2.708,2.725-4.325
			c0.65-1.617,0.975-3.341,0.975-5.175c0-1.933-0.367-3.75-1.1-5.45c-0.734-1.7-1.742-3.191-3.025-4.475
			c-1.284-1.283-2.775-2.292-4.475-3.025c-1.7-0.733-3.517-1.1-5.45-1.1c-1.333,0-2.617,0.175-3.85,0.525
			c-1.233,0.35-2.383,0.859-3.45,1.525L188.756,235.776z"/>
	</g>
</g>
</svg>
